<?xml version="1.0" encoding="utf-8"?>
<!-- Generator: Adobe Illustrator 26.0.0, SVG Export Plug-In . SVG Version: 6.00 Build 0)  -->
<svg version="1.1" id="图层_1" xmlns="http://www.w3.org/2000/svg" xmlns:xlink="http://www.w3.org/1999/xlink" x="0px" y="0px"
	 viewBox="0 0 512 512" style="enable-background:new 0 0 512 512;" xml:space="preserve">
<style type="text/css">
	.st0{fill:#4DB4FF;}
</style>
<g>
	<path class="st0" d="M452.88,370.59c-6.47,10.61-21.12,14.03-32.05,6.93l-32.62-18.83v34.61c0.71,13.43-10.32,24.61-23.16,24.29
		c-12.44-0.31-22.72-11.29-22.03-24.29v-60.7l-64.41-37.18v73.54l52.56,30.35c12,6.11,16.15,21.24,9.46,32.21
		c-6.49,10.61-21.13,14.03-32.05,6.93l-29.96-17.3v38.23c0.7,13.45-10.33,24.61-23.16,24.29c-12.43-0.31-22.72-11.28-22.03-24.29
		v-37.67L203.44,439c-11.29,7.33-26.47,3.37-32.62-7.91c-5.95-10.93-1.59-25.32,10.02-31.23l52.56-30.35V295.4l-63.93,36.91V393
		c0.71,13.46-10.32,24.61-23.16,24.3c-12.44-0.32-22.72-11.29-22.03-24.3v-34.6l-33.11,19.12c-11.3,7.33-26.48,3.37-32.62-7.91
		c-5.95-10.91-1.6-25.32,10.02-31.23l32.62-18.83l-29.96-17.3c-12-6.11-16.16-21.24-9.46-32.2c6.49-10.62,21.13-14.04,32.05-6.94
		l52.56,30.34l64.4-37.18l-63.92-36.9l-52.56,30.35c-11.29,7.33-26.46,3.36-32.62-7.92c-5.95-10.93-1.59-25.31,10.02-31.22
		l29.96-17.31l-33.11-19.12c-12-6.11-16.16-21.24-9.46-32.2c6.47-10.61,21.12-14.03,32.05-6.94l32.62,18.83v-34.6
		c-0.71-13.45,10.32-24.61,23.16-24.29c12.44,0.31,22.72,11.28,22.03,24.29v60.7l64.41,37.18v-74.07l-52.56-30.35
		c-12-6.11-16.15-21.24-9.46-32.21c6.49-10.61,21.13-14.03,32.05-6.93l29.96,17.3V52.62c-0.7-13.45,10.33-24.61,23.16-24.29
		c12.43,0.31,22.72,11.28,22.03,24.29v37.67L308.56,73c11.29-7.33,26.47-3.37,32.62,7.91c5.95,10.93,1.59,25.32-10.02,31.23
		l-52.56,30.35v74.64l63.93-36.91v-60.69c-0.71-13.46,10.32-24.61,23.16-24.3c12.44,0.32,22.72,11.29,22.03,24.3v34.6L420.83,135
		c11.3-7.33,26.48-3.37,32.62,7.91c5.95,10.91,1.6,25.32-10.02,31.23l-32.62,18.83l29.96,17.3c12,6.11,16.16,21.24,9.46,32.2
		c-6.49,10.62-21.13,14.04-32.05,6.94l-52.56-30.34l-64.41,37.18l63.93,36.91l52.56-30.35c11.29-7.33,26.46-3.36,32.62,7.92
		c5.95,10.91,1.59,25.31-10.02,31.22l-29.96,17.3l33.11,19.12C455.42,344.5,459.58,359.63,452.88,370.59z"/>
</g>
</svg>
